HIERARCHY
ROOT root
{
	OFFSET	0	13.1	24.9
	CHANNELS 6  Xposition Yposition Zposition Xrotation Yrotation Zrotation
	JOINT spine_1
	{
		OFFSET	0	9.99999	0
		CHANNELS 3  Xrotation Yrotation Zrotation
		JOINT spine_2
		{
			OFFSET	0	112	-10
			CHANNELS 3  Xrotation Yrotation Zrotation
			JOINT spine_3
			{
				OFFSET	0	206.5	19.3
				CHANNELS 3  Xrotation Yrotation Zrotation
				JOINT spine_4
				{
					OFFSET	0	110.4	14.6
					CHANNELS 3  Xrotation Yrotation Zrotation
					JOINT neck_1
					{
						OFFSET	0	71.8	-50.3
						CHANNELS 3  Xrotation Yrotation Zrotation
						JOINT neck_2
						{
							OFFSET	0	86.2	-25.8
							CHANNELS 3  Xrotation Yrotation Zrotation
							JOINT head_ee
							{
								OFFSET	0	179.8	-8.7
								CHANNELS 3  Xrotation Yrotation Zrotation
								End Site
								{
									OFFSET	1	0	0
								}
							}
						}
					}
					JOINT left_clavicle
					{
						OFFSET	-43.2	22.4	-70.8
						CHANNELS 3  Xrotation Yrotation Zrotation
						JOINT left_shoulder
						{
							OFFSET	-93.9	-5.79999	48.7
							CHANNELS 3  Xrotation Yrotation Zrotation
							JOINT left_elbow
							{
								OFFSET	-291.4	-30.8	15.2
								CHANNELS 3  Xrotation Yrotation Zrotation
								JOINT left_lowarm_twist
								{
									OFFSET	-110.7	-3.89999	13.6
									CHANNELS 3  Xrotation Yrotation Zrotation
									JOINT left_hand
									{
										OFFSET	-110.7	-3.89999	13.6
										CHANNELS 3  Xrotation Yrotation Zrotation
										JOINT left_ee
										{
											OFFSET	-80.8	-5.10001	12.1
											CHANNELS 3  Xrotation Yrotation Zrotation
											End Site
											{
												OFFSET	1	0	0
											}
										}
									}
								}
							}
						}
					}
					JOINT right_clavicle
					{
						OFFSET	43.2	22.4	-70.8
						CHANNELS 3  Xrotation Yrotation Zrotation
						JOINT right_shoulder
						{
							OFFSET	93.9	-5.79999	48.7
							CHANNELS 3  Xrotation Yrotation Zrotation
							JOINT right_elbow
							{
								OFFSET	291.4	-30.8	15.2
								CHANNELS 3  Xrotation Yrotation Zrotation
								JOINT right_lowarm_twist
								{
									OFFSET	110.7	-3.89999	13.6
									CHANNELS 3  Xrotation Yrotation Zrotation
									JOINT right_hand
									{
										OFFSET	110.7	-3.89999	13.6
										CHANNELS 3  Xrotation Yrotation Zrotation
										JOINT right_ee
										{
											OFFSET	80.8	-5.10001	12.1
											CHANNELS 3  Xrotation Yrotation Zrotation
											End Site
											{
												OFFSET	1	0	0
											}
										}
									}
								}
							}
						}
					}
				}
			}
		}
	}
	JOINT left_hip
	{
		OFFSET	-82.8	-127.5	0.300001
		CHANNELS 3  Xrotation Yrotation Zrotation
		JOINT left_knee
		{
			OFFSET	-28.2	-396.7	2.2
			CHANNELS 3  Xrotation Yrotation Zrotation
			JOINT left_ankle
			{
				OFFSET	-11.7	-411.3	35.4
				CHANNELS 3  Xrotation Yrotation Zrotation
				JOINT left_toes
				{
					OFFSET	0	-60	-88.6
					CHANNELS 3  Xrotation Yrotation Zrotation
					JOINT left_foot_ee
					{
						OFFSET	-22.5	-16.5	-42.2
						CHANNELS 3  Xrotation Yrotation Zrotation
						End Site
						{
							OFFSET	1	0	0
						}
					}
				}
			}
		}
	}
	JOINT right_hip
	{
		OFFSET	82.8	-127.5	0.300001
		CHANNELS 3  Xrotation Yrotation Zrotation
		JOINT right_knee
		{
			OFFSET	28.2	-396.7	2.2
			CHANNELS 3  Xrotation Yrotation Zrotation
			JOINT right_ankle
			{
				OFFSET	11.7	-411.3	35.4
				CHANNELS 3  Xrotation Yrotation Zrotation
				JOINT right_toes
				{
					OFFSET	0	-60	-88.6
					CHANNELS 3  Xrotation Yrotation Zrotation
					JOINT right_foot_ee
					{
						OFFSET	22.5	-16.5	-42.2
						CHANNELS 3  Xrotation Yrotation Zrotation
						End Site
						{
							OFFSET	1	0	0
						}
					}
				}
			}
		}
	}
}
MOTION
Frames: 8
Frame Time: 0.02
2768.88 702.469 -669.304 174.674 -81.037 -175.227 0.912062 -0.988073 -6.12305 0.932706 -0.597206 -6.17325 1.00274 0.606849 -6.17232 0.94982 -0.373644 -6.19074 -7.43127 7.66551 9.99407 -7.16804 7.09589 11.5201 -0.0 0.0 -0.0 9.814 -4.32263 19.413 1.0763 -21.0254 62.0976 4.23994 -64.5206 2.677 60.4812 -1.81696 -7.15214 1.72685 2.15522 12.4702 -0.0 0.0 -0.0 -5.66265 -7.48535 9.32804 -23.4271 33.1811 -68.8291 0.585552 16.1757 -0.0832106 12.3477 -0.2688 1.55137 -0.135744 -6.64202 -1.88458 0.0 0.0 0.0 -17.3618 2.63218 -4.01374 -1.22687 0.0485692 0.182012 31.4246 22.6008 -4.21335 24.6767 -0.0 -0.0 -0.0 0.0 -0.0 30.2382 24.108 -14.2344 -3.05198 -0.113574 -0.454557 12.1299 0.530777 1.72904 -25.8101 0.0 0.0 0.0 0.0 0.0 
2783.4 705.216 -664.944 173.203 -81.7406 -176.501 0.734966 -0.991745 -6.25466 0.756518 -0.592546 -6.30482 0.828672 0.656214 -6.29854 0.773526 -0.344706 -6.32314 -6.415 8.49066 8.33029 -6.23434 9.63318 9.9872 -0.0 0.0 -0.0 10.0196 -4.05708 19.8436 0.0408017 -21.2616 61.7616 4.16558 -64.1254 2.60998 61.7047 -1.92802 -7.26292 1.92258 -0.304994 12.8331 -0.0 0.0 -0.0 -5.58623 -7.20361 9.25581 -22.8941 33.0111 -69.0977 0.568498 15.7283 -0.0785235 11.2599 -0.258626 1.4128 0.0387014 -6.73308 -3.06011 0.0 0.0 0.0 -15.9798 3.4676 -4.91049 -4.82145 0.16827 0.720598 34.542 23.465 -4.572 24.9684 -0.0 -0.0 -0.0 0.0 -0.0 29.9436 23.3251 -14.4905 -5.86015 -0.196539 -0.877495 13.7653 0.419025 1.94891 -24.5834 0.0 0.0 0.0 0.0 0.0 
2796.14 707.799 -658.102 174.375 -82.8818 -175.385 0.764263 -0.967466 -6.28771 0.786062 -0.566225 -6.33626 0.855458 0.685416 -6.32453 0.799832 -0.319946 -6.35339 -6.06818 9.82208 10.0917 -5.79979 10.7213 11.9795 -0.0 0.0 -0.0 10.0228 -4.48265 19.86 -1.16401 -21.8475 61.0082 3.84826 -62.3027 2.32668 61.9166 -1.9475 -7.28186 2.08857 1.14079 14.5492 -0.0 0.0 -0.0 -5.17859 -6.93079 8.56643 -22.1664 32.993 -69.1692 0.567396 15.6993 -0.0782252 11.877 -0.26472 1.49138 0.279611 -7.58737 -4.97794 0.0 0.0 0.0 -16.576 2.88897 -5.37843 -4.7097 0.165059 0.703749 32.8828 24.9956 -4.43268 23.8218 -0.0 -0.0 -0.0 0.0 -0.0 30.5685 22.4563 -14.8705 -7.71994 -0.240027 -1.15957 13.3282 -0.836646 1.88497 -23.53 0.0 0.0 0.0 0.0 0.0 
2803.71 707.796 -652.677 176.693 -84.48 -173.211 0.743456 -0.943141 -6.29047 0.765289 -0.541773 -6.33748 0.832067 0.712373 -6.32065 0.776486 -0.292715 -6.35379 -6.42659 10.7409 8.70686 -6.2295 13.5437 10.7883 -0.0 0.0 -0.0 10.1711 -6.6103 20.2111 -1.31517 -22.3257 61.282 3.72526 -61.5308 2.21815 62.7478 -2.02457 -7.35549 2.08797 0.77985 14.4027 -0.0 0.0 -0.0 -5.05598 -6.68216 8.39709 -20.4015 33.0419 -69.8958 0.564543 15.6242 -0.0774551 11.1076 -0.256991 1.39341 0.231335 -7.48716 -4.62305 0.0 0.0 0.0 -16.1571 2.89677 -5.89978 -4.49622 0.158834 0.671577 33.4543 27.1208 -4.55703 21.7169 -0.0 -0.0 -0.0 0.0 -0.0 30.3809 22.0869 -14.6542 -8.46577 -0.25489 -1.27306 12.3489 -2.67049 1.74734 -23.5195 0.0 0.0 0.0 0.0 0.0 
2815.28 706.643 -647.808 -179.376 -85.9862 -169.899 0.747506 -0.928358 -6.26494 0.769169 -0.528636 -6.31107 0.834148 0.719892 -6.2922 0.779058 -0.280823 -6.32687 -7.09869 11.962 9.79827 -6.85884 15.1866 12.164 -0.0 0.0 -0.0 10.1303 -7.72668 20.1297 -1.9691 -22.5623 61.5165 3.59456 -60.6662 2.10373 62.8656 -2.03558 -7.36583 2.01384 1.17146 14.0469 -0.0 0.0 -0.0 -4.80253 -6.48331 7.97261 -19.7668 33.1764 -69.8594 0.557205 15.4309 -0.0754906 11.0898 -0.256797 1.39114 0.322132 -8.49787 -5.61902 0.0 0.0 0.0 -15.9663 3.21072 -6.24386 -4.21954 0.150588 0.629916 40.4688 25.8984 -5.24316 20.5609 -0.0 -0.0 -0.0 0.0 -0.0 29.5609 21.8328 -13.0427 -8.77802 -0.260673 -1.32062 10.5097 -4.96799 1.49309 -23.3282 0.0 0.0 0.0 0.0 0.0 
2831.93 709.089 -646.87 -175.589 -86.5193 -166.055 0.798583 -0.846102 -6.27962 0.820393 -0.445615 -6.32052 0.875835 0.799066 -6.28576 0.820805 -0.20162 -6.33295 -6.8001 12.1914 9.54965 -6.56834 15.7205 11.9353 -0.0 0.0 -0.0 10.11 -8.50839 20.0852 -2.91026 -22.8485 62.0284 3.47444 -59.8284 1.99945 63.29 -2.07542 -7.40291 1.9713 1.6693 13.9504 -0.0 0.0 -0.0 -4.73846 -5.38755 8.0963 -19.6255 33.2022 -69.4015 0.558942 15.4767 -0.0759534 11.5661 -0.261756 1.45178 0.469955 -7.48478 -6.1788 0.0 0.0 0.0 -15.7168 3.24186 -6.65043 -5.02979 0.174168 0.752028 40.2139 25.6095 -5.20876 20.0925 -0.0 -0.0 -0.0 0.0 -0.0 29.1289 21.9815 -13.0539 -10.4441 -0.287143 -1.57489 10.4666 -5.14227 1.48698 -23.3978 0.0 0.0 0.0 0.0 0.0 
2852.12 713.765 -639.547 175.991 -85.6363 -174.477 0.853785 -0.751978 -6.19162 0.875025 -0.357246 -6.22674 0.919465 0.86307 -6.17717 0.866284 -0.121363 -6.23576 -6.46654 11.8418 10.3025 -6.18971 14.4254 12.5858 -0.0 0.0 -0.0 9.77621 -8.01054 19.3625 -5.31612 -22.2465 62.5248 3.25869 -58.2095 1.81446 62.3455 -1.98713 -7.31999 1.79165 2.17939 12.9212 -0.0 0.0 -0.0 -4.69161 -4.57347 8.18574 -19.2582 33.3297 -69.105 0.58842 16.2508 -0.0840115 11.4202 -0.26029 1.4332 0.481398 -7.90039 -6.41825 0.0 0.0 0.0 -14.9284 1.94744 -7.46261 -8.33412 0.252373 1.25301 36.4141 24.8095 -4.80453 20.1949 -0.0 -0.0 -0.0 0.0 -0.0 27.7071 23.3436 -14.1714 -10.7813 -0.291601 -1.62644 11.8006 -4.84237 1.66881 -23.2664 0.0 0.0 0.0 0.0 0.0 
2867.07 718.317 -631.086 175.639 -86.3465 -174.616 0.818861 -0.730652 -6.19718 0.840147 -0.335611 -6.23094 0.882419 0.889247 -6.1765 0.829242 -0.0954062 -6.23921 -7.5423 11.7586 10.1296 -7.29083 14.68 12.4897 -0.0 0.0 -0.0 9.87634 -8.77001 19.5759 -7.47949 -21.8464 62.2703 3.15778 -57.3977 1.72906 62.171 -1.97097 -7.30452 1.90478 2.38281 13.7734 -0.0 0.0 -0.0 -4.22123 -3.67372 7.48238 -18.2603 33.6081 -69.0321 0.55544 15.3843 -0.0750217 11.4637 -0.260732 1.43874 0.369552 -8.21025 -5.81263 0.0 0.0 0.0 -14.0678 1.89246 -8.25707 -10.5672 0.288806 1.59371 38.6236 26.0138 -5.0666 20.9406 -0.0 -0.0 -0.0 0.0 -0.0 26.6798 22.2561 -14.6764 -11.1146 -0.295708 -1.67742 12.0598 -5.58176 1.70283 -23.4104 0.0 0.0 0.0 0.0 0.0 
